<svg width="55" height="55" viewBox="0 0 55 55" fill="none" xmlns="http://www.w3.org/2000/svg">
<path d="M0.654762 43.2143C1.01638 43.2143 1.30952 42.9212 1.30952 42.5595C1.30952 42.1979 1.01638 41.9048 0.654762 41.9048C0.293147 41.9048 0 42.1979 0 42.5595C0 42.9212 0.293147 43.2143 0.654762 43.2143Z" fill="#2D4356"/>
<path d="M3.60126 41.9048H2.61912C2.44546 41.9048 2.27892 41.9738 2.15613 42.0966C2.03334 42.2194 1.96436 42.3859 1.96436 42.5595C1.96436 42.7332 2.03334 42.8997 2.15613 43.0225C2.27892 43.1453 2.44546 43.2143 2.61912 43.2143H3.60126C3.77491 43.2143 3.94145 43.1453 4.06425 43.0225C4.18704 42.8997 4.25602 42.7332 4.25602 42.5595C4.25602 42.3859 4.18704 42.2194 4.06425 42.0966C3.94145 41.9738 3.77491 41.9048 3.60126 41.9048ZM52.381 41.9048H51.3989C51.2252 41.9048 51.0587 41.9738 50.9359 42.0966C50.8131 42.2194 50.7441 42.3859 50.7441 42.5595C50.7441 42.7332 50.8131 42.8997 50.9359 43.0225C51.0587 43.1453 51.2252 43.2143 51.3989 43.2143H52.381C52.5547 43.2143 52.7212 43.1453 52.844 43.0225C52.9668 42.8997 53.0358 42.7332 53.0358 42.5595C53.0358 42.3859 52.9668 42.2194 52.844 42.0966C52.7212 41.9738 52.5547 41.9048 52.381 41.9048Z" fill="#555555"/>
<path d="M54.3452 43.2143C54.7068 43.2143 55 42.9212 55 42.5595C55 42.1979 54.7068 41.9048 54.3452 41.9048C53.9836 41.9048 53.6904 42.1979 53.6904 42.5595C53.6904 42.9212 53.9836 43.2143 54.3452 43.2143Z" fill="#555555"/>
<path d="M49.3431 41.9047H48.3997C48.4332 41.7825 48.4509 41.6565 48.4522 41.5298V15.7861C48.4522 14.9076 47.709 14.0079 46.8698 13.7074C44.1686 12.7401 39.8487 12.113 35.8648 12.113C32.7668 12.113 29.8724 12.4919 28.0985 13.3848C27.9119 13.4755 27.7072 13.5226 27.4998 13.5226C27.2924 13.5226 27.0877 13.4755 26.9012 13.3848C25.1274 12.492 22.2323 12.113 19.1348 12.113C15.1506 12.1129 10.8312 12.74 8.12982 13.7074C7.29058 14.0079 6.54743 14.9076 6.54743 15.7861V41.5298C6.54876 41.6565 6.5664 41.7825 6.59992 41.9047H5.65652C5.56338 41.8925 5.4687 41.9004 5.37883 41.9277C5.28895 41.955 5.20594 42.0012 5.13535 42.0632C5.06475 42.1252 5.00819 42.2015 4.96944 42.2871C4.93069 42.3727 4.91064 42.4655 4.91064 42.5595C4.91064 42.6534 4.93069 42.7463 4.96944 42.8318C5.00819 42.9174 5.06475 42.9937 5.13535 43.0557C5.20594 43.1177 5.28895 43.1639 5.37883 43.1912C5.4687 43.2185 5.56338 43.2264 5.65652 43.2142H49.3431C49.4362 43.2264 49.5309 43.2185 49.6208 43.1912C49.7107 43.1639 49.7937 43.1177 49.8643 43.0557C49.9349 42.9937 49.9914 42.9174 50.0302 42.8318C50.0689 42.7463 50.089 42.6534 50.089 42.5595C50.089 42.4655 50.0689 42.3727 50.0302 42.2871C49.9914 42.2015 49.9349 42.1252 49.8643 42.0632C49.7937 42.0012 49.7107 41.955 49.6208 41.9277C49.5309 41.9004 49.4362 41.8925 49.3431 41.9047ZM14.7437 41.9047C16.3162 41.721 17.8976 41.6238 19.4807 41.6136C20.8299 41.6081 22.1775 41.7054 23.5118 41.9047H14.7437ZM31.4878 41.9047C32.8223 41.7054 34.1702 41.6081 35.5195 41.6136C37.1026 41.6238 38.6839 41.721 40.2563 41.9047H31.4878ZM47.1427 41.5298C47.1429 41.5451 47.1415 41.5604 47.1383 41.5754C47.1295 41.5767 47.1206 41.5774 47.1116 41.5773C47.0959 41.5772 47.0802 41.5758 47.0647 41.5733L46.4439 41.4728C42.8982 40.8983 39.2319 40.3042 35.5195 40.3042C33.1132 40.2689 30.7148 40.5884 28.4017 41.2525C28.3108 41.2798 28.2204 41.3093 28.1303 41.3385C28.0168 41.3754 27.918 41.4053 27.8272 41.4294V20.2976C27.8272 20.2107 27.7927 20.1275 27.7313 20.0661C27.6699 20.0047 27.5866 19.9702 27.4998 19.9702C27.413 19.9702 27.3297 20.0047 27.2683 20.0661C27.2069 20.1275 27.1724 20.2107 27.1724 20.2976V41.4343C27.0955 41.4124 27.0121 41.3861 26.9211 41.3557C26.8284 41.3247 26.7357 41.2941 26.6425 41.2657C24.3161 40.5922 21.9024 40.2681 19.4807 40.3041C15.7684 40.3041 12.1019 40.8981 8.55599 41.4728L7.93561 41.5732C7.91986 41.5758 7.90393 41.5772 7.88797 41.5773C7.87903 41.5774 7.87011 41.5767 7.86127 41.5754C7.85815 41.5604 7.8567 41.5451 7.85695 41.5298V15.7861C7.89659 15.597 7.98263 15.4206 8.10733 15.273C8.23203 15.1253 8.39148 15.0109 8.57134 14.9402C11.1461 14.0182 15.2926 13.4224 19.1348 13.4226C22.313 13.4226 24.8622 13.8246 26.3123 14.5545C26.5821 14.689 26.8731 14.7759 27.1724 14.8114V17.6785C27.1724 17.7653 27.2069 17.8486 27.2683 17.91C27.3297 17.9714 27.413 18.0059 27.4998 18.0059C27.5866 18.0059 27.6699 17.9714 27.7313 17.91C27.7927 17.8486 27.8272 17.7653 27.8272 17.6785V14.8114C28.1265 14.7759 28.4175 14.689 28.6872 14.5545C30.1375 13.8246 32.6866 13.4226 35.8648 13.4226C39.7072 13.4226 43.8537 14.0182 46.4283 14.9402C46.6081 15.0109 46.7676 15.1253 46.8923 15.273C47.017 15.4206 47.103 15.597 47.1427 15.7861V41.5298Z" fill="#ADADAD"/>
<path d="M38.6814 44.8511H35.9616C35.797 44.8643 35.6434 44.939 35.5314 45.0603C35.4194 45.1816 35.3572 45.3407 35.3572 45.5058C35.3572 45.671 35.4194 45.83 35.5314 45.9514C35.6434 46.0727 35.797 46.1474 35.9616 46.1606H38.6814C38.846 46.1474 38.9996 46.0727 39.1116 45.9514C39.2236 45.83 39.2858 45.671 39.2858 45.5058C39.2858 45.3407 39.2236 45.1816 39.1116 45.0603C38.9996 44.939 38.846 44.8643 38.6814 44.8511ZM19.0385 44.8511H16.3188C16.1542 44.8643 16.0006 44.939 15.8886 45.0603C15.7765 45.1816 15.7144 45.3407 15.7144 45.5058C15.7144 45.671 15.7765 45.83 15.8886 45.9514C16.0006 46.0727 16.1542 46.1474 16.3188 46.1606H19.0385C19.2031 46.1474 19.3567 46.0727 19.4687 45.9514C19.5808 45.83 19.6429 45.671 19.6429 45.5058C19.6429 45.3407 19.5808 45.1816 19.4687 45.0603C19.3567 44.939 19.2031 44.8643 19.0385 44.8511ZM34.0477 44.8511H20.9525C20.7788 44.8511 20.6123 44.9201 20.4895 45.0428C20.3667 45.1656 20.2977 45.3322 20.2977 45.5058C20.2977 45.6795 20.3667 45.846 20.4895 45.9688C20.6123 46.0916 20.7788 46.1606 20.9525 46.1606H26.1709V46.8154H23.5715C23.3979 46.8154 23.2313 46.8843 23.1085 47.0071C22.9857 47.1299 22.9167 47.2965 22.9167 47.4701C22.9167 47.6438 22.9857 47.8103 23.1085 47.9331C23.2313 48.0559 23.3979 48.1249 23.5715 48.1249H31.756C31.9297 48.1249 32.0962 48.0559 32.219 47.9331C32.3418 47.8103 32.4108 47.6438 32.4108 47.4701C32.4108 47.2965 32.3418 47.1299 32.219 47.0071C32.0962 46.8843 31.9297 46.8154 31.756 46.8154H28.8292V46.1606H34.0477C34.2213 46.1606 34.3879 46.0916 34.5107 45.9688C34.6335 45.846 34.7025 45.6795 34.7025 45.5058C34.7025 45.3322 34.6335 45.1656 34.5107 45.0428C34.3879 44.9201 34.2213 44.8511 34.0477 44.8511Z" fill="#2F8A33"/>
</svg>
