<svg width="25" height="21" viewBox="0 0 25 21" fill="none" xmlns="http://www.w3.org/2000/svg">
<path fill-rule="evenodd" clip-rule="evenodd" d="M22.1683 16.6742H7.10837C6.87829 16.6746 6.6533 16.6062 6.46191 16.4776C6.27052 16.3491 6.12138 16.1662 6.0334 15.9522C5.94541 15.7382 5.92253 15.5027 5.9677 15.2756C6.01287 15.0485 6.12403 14.8401 6.28708 14.6767C6.5062 14.4561 6.799 14.3318 7.10928 14.3318H22.0202C22.2481 14.3318 22.4444 14.1765 22.4996 13.9559L24.9854 3.9526C25.0035 3.87934 25.0048 3.8029 24.9892 3.72907C24.9735 3.65523 24.9414 3.58594 24.8952 3.52648C24.849 3.46703 24.7899 3.41896 24.7224 3.38593C24.655 3.35291 24.5809 3.33582 24.5059 3.33591H5.01093L4.27819 0.37588C4.25132 0.268071 4.18928 0.172453 4.10205 0.104314C4.01481 0.036175 3.9074 -0.000570021 3.79698 6.68634e-06H0.492601C0.3621 0.000471689 0.237068 0.0528373 0.14479 0.145725C0.0525111 0.238612 0.000461955 0.364496 0 0.495858C0 0.771128 0.219134 0.991708 0.492601 0.991708H3.41308L4.14934 3.95174L6.50797 13.4583C6.16701 13.558 5.84533 13.7133 5.58852 13.9735C5.38907 14.1738 5.23089 14.4117 5.12304 14.6736C5.01519 14.9355 4.95982 15.2163 4.96009 15.4999C4.96009 16.1872 5.29753 16.773 5.79362 17.17C5.72876 17.2203 5.64816 17.2459 5.5868 17.3094C5.2875 17.6123 5.0839 17.9975 5.00171 18.4166C4.91951 18.8357 4.96237 19.2699 5.12488 19.6645C5.2874 20.0591 5.5623 20.3966 5.91496 20.6342C6.26761 20.8718 6.68222 20.9991 7.1066 21H7.11366C7.68689 21 8.22677 20.7759 8.63346 20.3639C8.83343 20.1638 8.99188 19.9256 9.09947 19.6632C9.20707 19.4009 9.26168 19.1196 9.26018 18.8358C9.26018 18.3946 9.09538 18.01 8.86837 17.6659H20.4101C20.1787 18.0188 20.02 18.407 20.02 18.8358C20.0198 19.4092 20.2458 19.9593 20.6483 20.3651C21.0508 20.7709 21.5969 20.9993 22.1666 21H22.1753C22.7468 21 23.2885 20.7759 23.6917 20.3639C23.8916 20.1636 24.0501 19.9255 24.1579 19.6632C24.2658 19.4009 24.3209 19.1196 24.3201 18.8358C24.3201 17.6482 23.356 16.6795 22.1683 16.6742ZM23.8731 4.32933L21.6337 13.3401H7.49665L5.25809 4.32933H23.8731ZM8.27236 18.8437C8.27411 19.1542 8.15231 19.4436 7.93319 19.666C7.71406 19.8865 7.42303 20.011 7.11275 20.011H7.10398C6.8742 20.0107 6.64971 19.9417 6.45886 19.8129C6.26801 19.6841 6.1194 19.5012 6.03185 19.2874C5.9443 19.0735 5.92173 18.8384 5.96701 18.6116C6.01229 18.3848 6.12338 18.1767 6.28622 18.0135C6.44916 17.8498 6.65665 17.7385 6.88245 17.6935C7.10825 17.6485 7.34223 17.672 7.5548 17.7608C7.76737 17.8497 7.94899 18 8.07672 18.1927C8.20444 18.3855 8.27252 18.612 8.27236 18.8437ZM22.9931 19.666C22.8859 19.7749 22.7584 19.8614 22.618 19.9206C22.4775 19.9798 22.3268 20.0106 22.1745 20.011H22.1639C21.934 20.011 21.7092 19.9423 21.5181 19.8136C21.327 19.685 21.1781 19.5021 21.0904 19.2882C21.0026 19.0742 20.9799 18.8389 21.0251 18.612C21.0704 18.3851 21.1815 18.1768 21.3444 18.0135C21.5071 17.8491 21.7148 17.7371 21.9409 17.6917C22.1669 17.6463 22.4013 17.6696 22.6142 17.7586C22.8271 17.8475 23.009 17.9982 23.1367 18.1914C23.2644 18.3846 23.3322 18.6116 23.3315 18.8437C23.3323 19.1542 23.214 19.4436 22.9931 19.666Z" fill="#777777"/>
</svg>
