<svg width="65" height="49" viewBox="0 0 65 49" fill="none" xmlns="http://www.w3.org/2000/svg">
<path fill-rule="evenodd" clip-rule="evenodd" d="M9.70126 16.9677C9.96234 16.6455 10.3549 16.4584 10.7695 16.4584H33.9172C36.0058 16.4584 37.536 18.4197 37.0295 20.4457L34.5582 30.331C34.0416 32.3946 32.2872 33.9131 30.1693 34.1249C30.1692 34.1249 30.1693 34.1249 30.1693 34.1249L17.6733 35.3752C15.114 35.6296 12.7709 33.9194 12.2386 31.4027C12.2385 31.4025 12.2386 31.4028 12.2386 31.4027L9.42439 18.1183C9.33846 17.7127 9.44019 17.2899 9.70126 16.9677ZM12.4663 19.2084L14.9289 30.8328C15.1703 31.9748 16.2339 32.7543 17.3995 32.6389L29.8955 31.3885C30.8574 31.2923 31.655 30.6033 31.8903 29.6641C31.8903 29.6639 31.8902 29.6642 31.8903 29.6641L34.3616 19.7787C34.4344 19.4873 34.2156 19.2084 33.9172 19.2084H12.4663Z" fill="#2F8A33"/>
<path fill-rule="evenodd" clip-rule="evenodd" d="M5.04199 12.3334C5.04199 11.574 5.6576 10.9584 6.41699 10.9584H9.57766C10.2249 10.9584 10.7844 11.4097 10.9215 12.0422L12.1131 17.5422C12.2739 18.2844 11.8027 19.0164 11.0605 19.1772C10.3183 19.338 9.58631 18.8667 9.42551 18.1245L8.46867 13.7084H6.41699C5.6576 13.7084 5.04199 13.0928 5.04199 12.3334Z" fill="#2F8A33"/>
<path fill-rule="evenodd" clip-rule="evenodd" d="M15.9447 38.9479C14.8221 38.9479 13.8985 39.8573 13.9024 40.9939C13.8985 42.1347 14.8264 43.0417 15.9465 43.0417C17.0763 43.0417 17.9925 42.1254 17.9925 40.9957C17.9925 39.8642 17.0763 38.9479 15.9447 38.9479ZM16.6523 40.9938L16.6523 40.9948V40.9928L16.6523 40.9938ZM31.3759 38.9479C30.2533 38.9479 29.3297 39.8573 29.3336 40.9939C29.3297 42.1347 30.2576 43.0417 31.3778 43.0417C32.5075 43.0417 33.4238 42.1254 33.4238 40.9957C33.4238 39.8642 32.5075 38.9479 31.3759 38.9479ZM32.0835 40.9938L32.0835 40.9948V40.9928L32.0835 40.9938Z" fill="#2F8A33"/>
<rect x="26" width="24" height="24" rx="12" fill="#2F8A33"/>
<path d="M38.4848 16.12C37.7408 16.12 37.0928 15.956 36.5408 15.628C35.9968 15.292 35.6248 14.824 35.4248 14.224L36.6728 13.636C36.7448 13.924 36.8568 14.172 37.0088 14.38C37.1608 14.588 37.3608 14.748 37.6088 14.86C37.8568 14.964 38.1648 15.016 38.5328 15.016C38.8448 15.016 39.1088 14.96 39.3248 14.848C39.5408 14.736 39.7048 14.58 39.8168 14.38C39.9368 14.18 39.9968 13.952 39.9968 13.696C39.9968 13.432 39.9448 13.212 39.8408 13.036C39.7448 12.86 39.5888 12.732 39.3728 12.652C39.1648 12.572 38.8968 12.532 38.5688 12.532C38.4728 12.532 38.3728 12.536 38.2688 12.544C38.1728 12.544 38.0688 12.552 37.9568 12.568V11.488C38.0288 11.496 38.0968 11.504 38.1608 11.512C38.2328 11.512 38.3008 11.512 38.3648 11.512C38.8848 11.512 39.2568 11.408 39.4808 11.2C39.7048 10.992 39.8168 10.668 39.8168 10.228C39.8168 9.852 39.7008 9.564 39.4688 9.364C39.2448 9.164 38.9208 9.064 38.4967 9.064C38.0568 9.064 37.7128 9.168 37.4648 9.376C37.2248 9.576 37.0408 9.868 36.9128 10.252L35.7368 9.76C35.8488 9.392 36.0368 9.072 36.3008 8.8C36.5648 8.528 36.8888 8.32 37.2728 8.176C37.6648 8.024 38.0928 7.948 38.5568 7.948C39.1248 7.948 39.5968 8.04 39.9728 8.224C40.3568 8.408 40.6408 8.66 40.8248 8.98C41.0168 9.3 41.1128 9.656 41.1128 10.048C41.1128 10.352 41.0688 10.62 40.9808 10.852C40.8928 11.076 40.7728 11.272 40.6208 11.44C40.4768 11.6 40.3168 11.724 40.1408 11.812C39.9728 11.9 39.8008 11.96 39.6248 11.992V12.016C39.8568 12.024 40.0688 12.072 40.2608 12.16C40.4608 12.24 40.6368 12.356 40.7888 12.508C40.9488 12.652 41.0728 12.828 41.1608 13.036C41.2488 13.244 41.2928 13.472 41.2928 13.72C41.2928 14.2 41.1728 14.62 40.9328 14.98C40.6928 15.34 40.3608 15.62 39.9368 15.82C39.5208 16.02 39.0368 16.12 38.4848 16.12Z" fill="white"/>
</svg>
