<svg width="18" height="14" viewBox="0 0 18 14" fill="none" xmlns="http://www.w3.org/2000/svg">
<path fill-rule="evenodd" clip-rule="evenodd" d="M5.24854 1.43689C5.24854 1.02268 5.58432 0.68689 5.99854 0.68689H17.0031C17.4173 0.68689 17.7531 1.02268 17.7531 1.43689C17.7531 1.8511 17.4173 2.18689 17.0031 2.18689H5.99854C5.58432 2.18689 5.24854 1.8511 5.24854 1.43689Z" fill="#555555"/>
<path fill-rule="evenodd" clip-rule="evenodd" d="M5.24854 7.00012C5.24854 6.58591 5.58432 6.25012 5.99854 6.25012H17.0031C17.4173 6.25012 17.7531 6.58591 17.7531 7.00012C17.7531 7.41434 17.4173 7.75012 17.0031 7.75012H5.99854C5.58432 7.75012 5.24854 7.41434 5.24854 7.00012Z" fill="#555555"/>
<path fill-rule="evenodd" clip-rule="evenodd" d="M5.24854 12.5635C5.24854 12.1493 5.58432 11.8135 5.99854 11.8135H17.0031C17.4173 11.8135 17.7531 12.1493 17.7531 12.5635C17.7531 12.9777 17.4173 13.3135 17.0031 13.3135H5.99854C5.58432 13.3135 5.24854 12.9777 5.24854 12.5635Z" fill="#555555"/>
<path fill-rule="evenodd" clip-rule="evenodd" d="M0.246582 1.43685C0.246582 0.746383 0.806319 0.186646 1.49679 0.186646C2.18726 0.186646 2.747 0.746383 2.747 1.43685C2.747 2.12732 2.18726 2.68706 1.49679 2.68706C0.806319 2.68706 0.246582 2.12732 0.246582 1.43685Z" fill="#555555"/>
<path fill-rule="evenodd" clip-rule="evenodd" d="M0.246582 7.00021C0.246582 6.30974 0.806319 5.75 1.49679 5.75C2.18726 5.75 2.747 6.30974 2.747 7.00021C2.747 7.69068 2.18726 8.25042 1.49679 8.25042C0.806319 8.25042 0.246582 7.69068 0.246582 7.00021Z" fill="#555555"/>
<path fill-rule="evenodd" clip-rule="evenodd" d="M0.246582 12.5634C0.246582 11.873 0.806319 11.3132 1.49679 11.3132C2.18726 11.3132 2.747 11.873 2.747 12.5634C2.747 13.2539 2.18726 13.8136 1.49679 13.8136C0.806319 13.8136 0.246582 13.2539 0.246582 12.5634Z" fill="#555555"/>
</svg>
