<svg width="48" height="48" viewBox="0 0 48 48" fill="none" xmlns="http://www.w3.org/2000/svg">
<path d="M10 20.7659V9.99991C10.0002 9.62859 10.1038 9.26465 10.2991 8.94886C10.4944 8.63307 10.7738 8.37789 11.106 8.21191L15.106 6.21191C15.4108 6.05958 15.7495 5.98767 16.09 6.003C16.4304 6.01834 16.7613 6.1204 17.0512 6.29952C17.3411 6.47864 17.5805 6.72886 17.7465 7.02645C17.9126 7.32404 17.9998 7.65913 18 7.99991V20.7639" stroke="#2F8A33" stroke-width="1.5" stroke-linecap="round" stroke-linejoin="round"/>
<path d="M10 20.7661H18C18.5304 20.7661 19.0391 20.9768 19.4142 21.3519C19.7893 21.727 20 22.2357 20 22.7661V38.0001C20 39.061 19.5786 40.0784 18.8284 40.8285C18.0783 41.5787 17.0609 42.0001 16 42.0001H12C10.9391 42.0001 9.92172 41.5787 9.17157 40.8285C8.42143 40.0784 8 39.061 8 38.0001V22.7661C8 22.2357 8.21071 21.727 8.58579 21.3519C8.96086 20.9768 9.46957 20.7661 10 20.7661Z" stroke="#ADADAD" stroke-width="1.5" stroke-linecap="round" stroke-linejoin="round"/>
<path d="M32 24H36C37.0609 24 38.0783 24.4214 38.8284 25.1716C39.5786 25.9217 40 26.9391 40 28V40C40 40.5304 39.7893 41.0391 39.4142 41.4142C39.0391 41.7893 38.5304 42 38 42H30C29.4696 42 28.9609 41.7893 28.5858 41.4142C28.2107 41.0391 28 40.5304 28 40V28C28 26.9391 28.4214 25.9217 29.1716 25.1716C29.9217 24.4214 30.9391 24 32 24V24Z" stroke="#ADADAD" stroke-width="1.5" stroke-linecap="round" stroke-linejoin="round"/>
<path d="M20 30H8" stroke="#555555" stroke-width="1.5" stroke-linecap="round" stroke-linejoin="round"/>
</svg>
