<svg width="30" height="30" viewBox="0 0 30 30" fill="none" xmlns="http://www.w3.org/2000/svg">
<path fill-rule="evenodd" clip-rule="evenodd" d="M10.38 5.9375C7.06521 5.9375 4.6875 9.09516 4.6875 12.1938C4.6875 15.4313 6.71726 18.3995 9.17083 20.6212C10.3832 21.7189 11.6597 22.5972 12.7546 23.1963C13.3021 23.4959 13.7927 23.7193 14.1971 23.8654C14.6204 24.0184 14.8838 24.0625 15 24.0625C15.1162 24.0625 15.3796 24.0184 15.8029 23.8654C16.2073 23.7193 16.6979 23.4959 17.2454 23.1963C18.3403 22.5972 19.6168 21.7189 20.8292 20.6212C23.2827 18.3995 25.3125 15.4313 25.3125 12.1938C25.3125 9.09516 22.9348 5.9375 19.62 5.9375C17.7021 5.9375 16.4525 6.88238 15.7126 7.74792C15.5345 7.95628 15.2741 8.07625 15 8.07625C14.7259 8.07625 14.4655 7.95628 14.2874 7.74792C13.5475 6.88238 12.2979 5.9375 10.38 5.9375ZM2.8125 12.1938C2.8125 8.35484 5.75729 4.0625 10.38 4.0625C12.454 4.0625 13.9706 4.88839 15 5.80285C16.0294 4.88839 17.546 4.0625 19.62 4.0625C24.2427 4.0625 27.1875 8.35484 27.1875 12.1938C27.1875 16.2074 24.7035 19.6424 22.0877 22.011C20.7654 23.2084 19.3683 24.1721 18.1454 24.8412C17.5341 25.1757 16.9548 25.4429 16.4401 25.6288C15.9443 25.808 15.4394 25.9375 15 25.9375C14.5606 25.9375 14.0557 25.808 13.5599 25.6288C13.0452 25.4429 12.4659 25.1757 11.8546 24.8412C10.6317 24.1721 9.23464 23.2084 7.9123 22.011C5.29649 19.6424 2.8125 16.2074 2.8125 12.1938Z" fill="#2F8A33"/>
</svg>
