<svg width="64" height="64" viewBox="0 0 64 64" fill="none" xmlns="http://www.w3.org/2000/svg">
<g filter="url(#filter0_d_148_14566)">
<path d="M4.66667 50.7501C5.03486 50.7501 5.33333 50.4516 5.33333 50.0834C5.33333 49.7152 5.03486 49.4167 4.66667 49.4167C4.29848 49.4167 4 49.7152 4 50.0834C4 50.4516 4.29848 50.7501 4.66667 50.7501Z" fill="#2D4356"/>
<path d="M7.66667 49.4167H6.66667C6.48986 49.4167 6.32029 49.487 6.19526 49.612C6.07024 49.737 6 49.9066 6 50.0834C6 50.2602 6.07024 50.4298 6.19526 50.5548C6.32029 50.6798 6.48986 50.7501 6.66667 50.7501H7.66667C7.84348 50.7501 8.01305 50.6798 8.13807 50.5548C8.2631 50.4298 8.33333 50.2602 8.33333 50.0834C8.33333 49.9066 8.2631 49.737 8.13807 49.612C8.01305 49.487 7.84348 49.4167 7.66667 49.4167Z" fill="#2D4356"/>
<path d="M43.3846 52.0833H40.6154C40.4478 52.0967 40.2914 52.1727 40.1774 52.2963C40.0633 52.4198 40 52.5818 40 52.7499C40 52.918 40.0633 53.08 40.1774 53.2036C40.2914 53.3271 40.4478 53.4032 40.6154 53.4166H43.3846C43.5522 53.4032 43.7086 53.3271 43.8227 53.2036C43.9367 53.08 44 52.918 44 52.7499C44 52.5818 43.9367 52.4198 43.8227 52.2963C43.7086 52.1727 43.5522 52.0967 43.3846 52.0833ZM23.3846 52.0833H20.6154C20.4478 52.0967 20.2914 52.1727 20.1774 52.2963C20.0633 52.4198 20 52.5818 20 52.7499C20 52.918 20.0633 53.08 20.1774 53.2036C20.2914 53.3271 20.4478 53.4032 20.6154 53.4166H23.3846C23.5522 53.4032 23.7086 53.3271 23.8227 53.2036C23.9367 53.08 24 52.918 24 52.7499C24 52.5818 23.9367 52.4198 23.8227 52.2963C23.7086 52.1727 23.5522 52.0967 23.3846 52.0833ZM38.6667 52.0833H25.3333C25.1565 52.0833 24.987 52.1535 24.8619 52.2785C24.7369 52.4035 24.6667 52.5731 24.6667 52.7499C24.6667 52.9267 24.7369 53.0963 24.8619 53.2213C24.987 53.3463 25.1565 53.4166 25.3333 53.4166H30.6467V54.0833H28C27.8232 54.0833 27.6536 54.1535 27.5286 54.2785C27.4036 54.4035 27.3333 54.5731 27.3333 54.7499C27.3333 54.9267 27.4036 55.0963 27.5286 55.2213C27.6536 55.3463 27.8232 55.4166 28 55.4166H36.3333C36.5102 55.4166 36.6797 55.3463 36.8047 55.2213C36.9298 55.0963 37 54.9267 37 54.7499C37 54.5731 36.9298 54.4035 36.8047 54.2785C36.6797 54.1535 36.5102 54.0833 36.3333 54.0833H33.3533V53.4166H38.6667C38.8435 53.4166 39.0131 53.3463 39.1381 53.2213C39.2631 53.0963 39.3333 52.9267 39.3333 52.7499C39.3333 52.5731 39.2631 52.4035 39.1381 52.2785C39.0131 52.1535 38.8435 52.0833 38.6667 52.0833Z" fill="#0BCEB2"/>
<path d="M4.66667 50.7501C5.03486 50.7501 5.33333 50.4516 5.33333 50.0834C5.33333 49.7152 5.03486 49.4167 4.66667 49.4167C4.29848 49.4167 4 49.7152 4 50.0834C4 50.4516 4.29848 50.7501 4.66667 50.7501Z" fill="#2D4356"/>
<path d="M7.66667 49.4167H6.66667C6.48986 49.4167 6.32029 49.487 6.19526 49.612C6.07024 49.737 6 49.9066 6 50.0834C6 50.2602 6.07024 50.4298 6.19526 50.5548C6.32029 50.6798 6.48986 50.7501 6.66667 50.7501H7.66667C7.84348 50.7501 8.01305 50.6798 8.13807 50.5548C8.2631 50.4298 8.33333 50.2602 8.33333 50.0834C8.33333 49.9066 8.2631 49.737 8.13807 49.612C8.01305 49.487 7.84348 49.4167 7.66667 49.4167Z" fill="#2D4356"/>
<path d="M43.3846 52.0833H40.6154C40.4478 52.0967 40.2914 52.1727 40.1774 52.2963C40.0633 52.4198 40 52.5818 40 52.7499C40 52.918 40.0633 53.08 40.1774 53.2036C40.2914 53.3271 40.4478 53.4032 40.6154 53.4166H43.3846C43.5522 53.4032 43.7086 53.3271 43.8227 53.2036C43.9367 53.08 44 52.918 44 52.7499C44 52.5818 43.9367 52.4198 43.8227 52.2963C43.7086 52.1727 43.5522 52.0967 43.3846 52.0833ZM23.3846 52.0833H20.6154C20.4478 52.0967 20.2914 52.1727 20.1774 52.2963C20.0633 52.4198 20 52.5818 20 52.7499C20 52.918 20.0633 53.08 20.1774 53.2036C20.2914 53.3271 20.4478 53.4032 20.6154 53.4166H23.3846C23.5522 53.4032 23.7086 53.3271 23.8227 53.2036C23.9367 53.08 24 52.918 24 52.7499C24 52.5818 23.9367 52.4198 23.8227 52.2963C23.7086 52.1727 23.5522 52.0967 23.3846 52.0833ZM38.6667 52.0833H25.3333C25.1565 52.0833 24.987 52.1535 24.8619 52.2785C24.7369 52.4035 24.6667 52.5731 24.6667 52.7499C24.6667 52.9267 24.7369 53.0963 24.8619 53.2213C24.987 53.3463 25.1565 53.4166 25.3333 53.4166H30.6467V54.0833H28C27.8232 54.0833 27.6536 54.1535 27.5286 54.2785C27.4036 54.4035 27.3333 54.5731 27.3333 54.7499C27.3333 54.9267 27.4036 55.0963 27.5286 55.2213C27.6536 55.3463 27.8232 55.4166 28 55.4166H36.3333C36.5102 55.4166 36.6797 55.3463 36.8047 55.2213C36.9298 55.0963 37 54.9267 37 54.7499C37 54.5731 36.9298 54.4035 36.8047 54.2785C36.6797 54.1535 36.5102 54.0833 36.3333 54.0833H33.3533V53.4166H38.6667C38.8435 53.4166 39.0131 53.3463 39.1381 53.2213C39.2631 53.0963 39.3333 52.9267 39.3333 52.7499C39.3333 52.5731 39.2631 52.4035 39.1381 52.2785C39.0131 52.1535 38.8435 52.0833 38.6667 52.0833Z" fill="#0BCEB2"/>
<path d="M4.66667 50.7501C5.03486 50.7501 5.33333 50.4516 5.33333 50.0834C5.33333 49.7152 5.03486 49.4167 4.66667 49.4167C4.29848 49.4167 4 49.7152 4 50.0834C4 50.4516 4.29848 50.7501 4.66667 50.7501Z" fill="#555555"/>
<path d="M7.66667 49.4167H6.66667C6.48986 49.4167 6.32029 49.487 6.19526 49.612C6.07024 49.737 6 49.9066 6 50.0834C6 50.2602 6.07024 50.4298 6.19526 50.5548C6.32029 50.6798 6.48986 50.7501 6.66667 50.7501H7.66667C7.84348 50.7501 8.01305 50.6798 8.13807 50.5548C8.2631 50.4298 8.33333 50.2602 8.33333 50.0834C8.33333 49.9066 8.2631 49.737 8.13807 49.612C8.01305 49.487 7.84348 49.4167 7.66667 49.4167Z" fill="#555555"/>
<path d="M43.3846 52.0833H40.6154C40.4478 52.0967 40.2914 52.1727 40.1774 52.2963C40.0633 52.4198 40 52.5818 40 52.7499C40 52.918 40.0633 53.08 40.1774 53.2036C40.2914 53.3271 40.4478 53.4032 40.6154 53.4166H43.3846C43.5522 53.4032 43.7086 53.3271 43.8227 53.2036C43.9367 53.08 44 52.918 44 52.7499C44 52.5818 43.9367 52.4198 43.8227 52.2963C43.7086 52.1727 43.5522 52.0967 43.3846 52.0833ZM23.3846 52.0833H20.6154C20.4478 52.0967 20.2914 52.1727 20.1774 52.2963C20.0633 52.4198 20 52.5818 20 52.7499C20 52.918 20.0633 53.08 20.1774 53.2036C20.2914 53.3271 20.4478 53.4032 20.6154 53.4166H23.3846C23.5522 53.4032 23.7086 53.3271 23.8227 53.2036C23.9367 53.08 24 52.918 24 52.7499C24 52.5818 23.9367 52.4198 23.8227 52.2963C23.7086 52.1727 23.5522 52.0967 23.3846 52.0833ZM38.6667 52.0833H25.3333C25.1565 52.0833 24.987 52.1535 24.8619 52.2785C24.7369 52.4035 24.6667 52.5731 24.6667 52.7499C24.6667 52.9267 24.7369 53.0963 24.8619 53.2213C24.987 53.3463 25.1565 53.4166 25.3333 53.4166H30.6467V54.0833H28C27.8232 54.0833 27.6536 54.1535 27.5286 54.2785C27.4036 54.4035 27.3333 54.5731 27.3333 54.7499C27.3333 54.9267 27.4036 55.0963 27.5286 55.2213C27.6536 55.3463 27.8232 55.4166 28 55.4166H36.3333C36.5102 55.4166 36.6797 55.3463 36.8047 55.2213C36.9298 55.0963 37 54.9267 37 54.7499C37 54.5731 36.9298 54.4035 36.8047 54.2785C36.6797 54.1535 36.5102 54.0833 36.3333 54.0833H33.3533V53.4166H38.6667C38.8435 53.4166 39.0131 53.3463 39.1381 53.2213C39.2631 53.0963 39.3333 52.9267 39.3333 52.7499C39.3333 52.5731 39.2631 52.4035 39.1381 52.2785C39.0131 52.1535 38.8435 52.0833 38.6667 52.0833ZM29.3333 41.0833H28C27.8232 41.0833 27.6536 41.1535 27.5286 41.2785C27.4036 41.4035 27.3333 41.5731 27.3333 41.7499C27.3333 41.9267 27.4036 42.0963 27.5286 42.2213C27.6536 42.3463 27.8232 42.4166 28 42.4166H29.3333C29.5102 42.4166 29.6797 42.3463 29.8047 42.2213C29.9298 42.0963 30 41.9267 30 41.7499C30 41.5731 29.9298 41.4035 29.8047 41.2785C29.6797 41.1535 29.5102 41.0833 29.3333 41.0833ZM36 41.0833H34.6667C34.4899 41.0833 34.3203 41.1535 34.1953 41.2785C34.0702 41.4035 34 41.5731 34 41.7499C34 41.9267 34.0702 42.0963 34.1953 42.2213C34.3203 42.3463 34.4899 42.4166 34.6667 42.4166H36C36.1768 42.4166 36.3464 42.3463 36.4714 42.2213C36.5964 42.0963 36.6667 41.9267 36.6667 41.7499C36.6667 41.5731 36.5964 41.4035 36.4714 41.2785C36.3464 41.1535 36.1768 41.0833 36 41.0833Z" fill="#555555"/>
<path d="M57.3332 49.4167H56.3332C56.1564 49.4167 55.9868 49.487 55.8618 49.612C55.7367 49.737 55.6665 49.9066 55.6665 50.0834C55.6665 50.2602 55.7367 50.4298 55.8618 50.5548C55.9868 50.6798 56.1564 50.7501 56.3332 50.7501H57.3332C57.51 50.7501 57.6796 50.6798 57.8046 50.5548C57.9296 50.4298 57.9998 50.2602 57.9998 50.0834C57.9998 49.9066 57.9296 49.737 57.8046 49.612C57.6796 49.487 57.51 49.4167 57.3332 49.4167Z" fill="#555555"/>
<path d="M59.3332 50.7501C59.7014 50.7501 59.9998 50.4516 59.9998 50.0834C59.9998 49.7152 59.7014 49.4167 59.3332 49.4167C58.965 49.4167 58.6665 49.7152 58.6665 50.0834C58.6665 50.4516 58.965 50.7501 59.3332 50.7501Z" fill="#555555"/>
<path d="M54.24 49.4166H53.3334V9.41659C53.3334 9.24148 53.2989 9.06807 53.232 8.90628C53.165 8.7445 53.0668 8.59749 52.9429 8.47367C52.8191 8.34985 52.6721 8.25164 52.5103 8.18465C52.3485 8.11766 52.1751 8.0832 52 8.08325H12C11.8249 8.0832 11.6515 8.11766 11.4897 8.18465C11.3279 8.25164 11.1809 8.34985 11.0571 8.47367C10.9333 8.59749 10.8351 8.7445 10.7681 8.90628C10.7011 9.06807 10.6666 9.24148 10.6667 9.41659V49.4166H9.76002C9.66514 49.4041 9.56868 49.412 9.47711 49.4398C9.38553 49.4676 9.30095 49.5147 9.229 49.5778C9.15706 49.6409 9.09941 49.7186 9.05992 49.8058C9.02043 49.893 9 49.9876 9 50.0833C9 50.179 9.02043 50.2736 9.05992 50.3607C9.09941 50.4479 9.15706 50.5256 9.229 50.5887C9.30095 50.6518 9.38553 50.6989 9.47711 50.7267C9.56868 50.7545 9.66514 50.7624 9.76002 50.7499H54.24C54.3349 50.7624 54.4314 50.7545 54.5229 50.7267C54.6145 50.6989 54.6991 50.6518 54.771 50.5887C54.843 50.5256 54.9006 50.4479 54.9401 50.3607C54.9796 50.2736 55 50.179 55 50.0833C55 49.9876 54.9796 49.893 54.9401 49.8058C54.9006 49.7186 54.843 49.6409 54.771 49.5778C54.6991 49.5147 54.6145 49.4676 54.5229 49.4398C54.4314 49.412 54.3349 49.4041 54.24 49.4166ZM25.6667 9.41659H39V18.7499H25.6667V9.41659ZM12 9.41659H24.3334V18.7499H12V9.41659ZM31.3334 49.4166H12V34.0833H31.3334V49.4166ZM52 49.4166H32.6667V34.0833H52V49.4166ZM52 32.7499H12V20.0833H52V32.7499ZM52 18.7499H40.3334V9.41659H52V18.7499Z" fill="#ADADAD"/>
<path d="M52.0002 26.0833V27.4166H42.6668V32.7499H41.3335V20.0833H42.6668V26.0833H52.0002Z" fill="#2F8A33"/>
<path d="M22.6667 20.0833V32.7499H21.3333V27.4166H12V26.0833H21.3333V20.0833H22.6667Z" fill="#2F8A33"/>
</g>
<defs>
<filter id="filter0_d_148_14566" x="0" y="0" width="64" height="64" filterUnits="userSpaceOnUse" color-interpolation-filters="sRGB">
<feFlood flood-opacity="0" result="BackgroundImageFix"/>
<feColorMatrix in="SourceAlpha" type="matrix" values="0 0 0 0 0 0 0 0 0 0 0 0 0 0 0 0 0 0 127 0" result="hardAlpha"/>
<feOffset dy="4"/>
<feGaussianBlur stdDeviation="2"/>
<feComposite in2="hardAlpha" operator="out"/>
<feColorMatrix type="matrix" values="0 0 0 0 0 0 0 0 0 0 0 0 0 0 0 0 0 0 0.25 0"/>
<feBlend mode="normal" in2="BackgroundImageFix" result="effect1_dropShadow_148_14566"/>
<feBlend mode="normal" in="SourceGraphic" in2="effect1_dropShadow_148_14566" result="shape"/>
</filter>
</defs>
</svg>
