<svg width="25" height="21" viewBox="0 0 25 21" fill="none" xmlns="http://www.w3.org/2000/svg">
<path d="M18.2432 0C16.5678 0.000815599 14.9528 0.61115 13.7135 1.71188C13.2425 2.12734 12.8339 2.60572 12.5 3.13283C12.1659 2.60565 11.7574 2.12707 11.2865 1.71122C10.0469 0.610949 8.43203 0.000888586 6.75676 0C3.03108 0 0 2.95934 0 6.59683C0 9.05217 0.782432 10.9903 2.61554 13.0782C5.27905 16.1128 12.0203 20.7437 12.3061 20.9397C12.3628 20.9789 12.4305 21 12.5 21C12.5695 21 12.6372 20.9789 12.6939 20.9397C12.9797 20.7437 19.7209 16.1128 22.3851 13.0782C24.2176 10.9903 25 9.05217 25 6.59683C25 2.95934 21.9689 0 18.2432 0ZM21.8723 12.6494C19.5108 15.3383 13.6426 19.4712 12.5 20.2655C11.3574 19.4712 5.48919 15.3383 3.12838 12.6494C1.40878 10.6908 0.675676 8.88065 0.675676 6.59683C0.675676 3.32282 3.40405 0.659683 6.75676 0.659683C8.26149 0.659683 9.70946 1.20656 10.8324 2.20004C11.3958 2.69748 11.8588 3.29356 12.1973 3.95744C12.3122 4.18173 12.6878 4.18173 12.8027 3.95744C13.1411 3.29366 13.6041 2.69777 14.1676 2.2007C15.2825 1.2099 16.7356 0.660453 18.2432 0.659683C21.5959 0.659683 24.3243 3.32282 24.3243 6.59683C24.3243 8.88065 23.5912 10.6908 21.8723 12.6494Z" fill="#777777"/>
</svg>
