<svg width="25" height="25" viewBox="0 0 25 25" fill="none" xmlns="http://www.w3.org/2000/svg">
<path d="M16.9366 15.7579C18.2534 14.1638 19.0851 12.1192 19.0851 9.86676C19.0851 4.80736 14.9613 0.683594 9.90192 0.683594C4.84251 0.683594 0.71875 4.80736 0.71875 9.86676C0.71875 14.9262 4.84251 19.0499 9.90192 19.0499C12.1197 19.0499 14.1989 18.2529 15.793 16.9014L22.9316 24.04C23.1049 24.2133 23.3128 24.2826 23.5207 24.2826C23.7287 24.2826 23.9366 24.2133 24.1098 24.04C24.4217 23.7281 24.4217 23.1737 24.1098 22.8618L16.9366 15.7579ZM9.86726 17.3866C5.70885 17.3866 2.34746 14.0252 2.34746 9.86676C2.34746 5.70835 5.70885 2.34696 9.86726 2.34696C14.0257 2.34696 17.3871 5.70835 17.3871 9.86676C17.3871 14.0252 14.0257 17.3866 9.86726 17.3866Z" fill="white" fill-opacity="0.73"/>
</svg>
