<svg width="48" height="48" viewBox="0 0 48 48" fill="none" xmlns="http://www.w3.org/2000/svg">
<path d="M28.5702 15.428H19.4282C17.2191 15.428 15.4282 17.2188 15.4282 19.428V28.57C15.4282 30.7791 17.2191 32.57 19.4282 32.57H28.5702C30.7794 32.57 32.5702 30.7791 32.5702 28.57V19.428C32.5702 17.2188 30.7794 15.428 28.5702 15.428Z" stroke="#555555" stroke-width="1.5" stroke-linecap="round" stroke-linejoin="round"/>
<path d="M20.5718 20.572H27.4298V27.43H20.5718V20.572Z" stroke="#2F8A33" stroke-width="1.5" stroke-linecap="round" stroke-linejoin="round"/>
<path d="M32 6H16C10.4772 6 6 10.4772 6 16V32C6 37.5228 10.4772 42 16 42H32C37.5228 42 42 37.5228 42 32V16C42 10.4772 37.5228 6 32 6Z" stroke="#ADADAD" stroke-width="1.5" stroke-linecap="round" stroke-linejoin="round"/>
<path d="M35.9998 20H32.5718" stroke="#555555" stroke-width="1.5" stroke-linecap="round" stroke-linejoin="round"/>
<path d="M35.9998 28H32.5718" stroke="#555555" stroke-width="1.5" stroke-linecap="round" stroke-linejoin="round"/>
<path d="M15.428 20H12" stroke="#555555" stroke-width="1.5" stroke-linecap="round" stroke-linejoin="round"/>
<path d="M15.428 28H12" stroke="#555555" stroke-width="1.5" stroke-linecap="round" stroke-linejoin="round"/>
<path d="M20 12V15.428" stroke="#555555" stroke-width="1.5" stroke-linecap="round" stroke-linejoin="round"/>
<path d="M28 12V15.428" stroke="#555555" stroke-width="1.5" stroke-linecap="round" stroke-linejoin="round"/>
<path d="M20 32.572V36" stroke="#555555" stroke-width="1.5" stroke-linecap="round" stroke-linejoin="round"/>
<path d="M28 32.572V36" stroke="#555555" stroke-width="1.5" stroke-linecap="round" stroke-linejoin="round"/>
</svg>
