<svg width="32" height="21" viewBox="0 0 32 21" fill="none" xmlns="http://www.w3.org/2000/svg">
<path d="M21.3333 8.68966H30.4762V8.33602L26.1569 4.34483H21.3333V8.68966ZM21.3333 10.1379V15.2065C22.0284 14.3273 23.1348 13.7586 24.381 13.7586C25.9431 13.7586 27.2856 14.6523 27.8735 15.931H30.4762V10.1379H21.3333ZM19.8095 15.931V2.89655V1.44828H1.52381V15.931H2.6027C3.19055 14.6523 4.53309 13.7586 6.09524 13.7586C7.65739 13.7586 8.99992 14.6523 9.58778 15.931H19.8095ZM21.3333 2.89655H26.7755L32 7.72414V15.931C32 16.7309 31.3178 17.3793 30.4762 17.3793H28.1905C28.1905 19.379 26.4849 21 24.381 21C22.277 21 20.5714 19.379 20.5714 17.3793H9.90476C9.90476 19.379 8.19918 21 6.09524 21C3.9913 21 2.28571 19.379 2.28571 17.3793H1.52381C0.682233 17.3793 0 16.7309 0 15.931V1.44828C0 0.648415 0.682233 0 1.52381 0H19.8095C20.6511 0 21.3333 0.648415 21.3333 1.44828V2.89655ZM6.09524 19.5517C7.3576 19.5517 8.38095 18.5791 8.38095 17.3793C8.38095 16.1795 7.3576 15.2069 6.09524 15.2069C4.83287 15.2069 3.80952 16.1795 3.80952 17.3793C3.80952 18.5791 4.83287 19.5517 6.09524 19.5517ZM24.381 19.5517C25.6433 19.5517 26.6667 18.5791 26.6667 17.3793C26.6667 16.1795 25.6433 15.2069 24.381 15.2069C23.1186 15.2069 22.0952 16.1795 22.0952 17.3793C22.0952 18.5791 23.1186 19.5517 24.381 19.5517Z" fill="#777777"/>
</svg>
