<svg width="48" height="48" viewBox="0 0 48 48" fill="none" xmlns="http://www.w3.org/2000/svg">
<path d="M14.5781 34.87L16.0381 40.504C16.2598 41.3624 16.7604 42.1229 17.4612 42.6659C18.1621 43.209 19.0235 43.5037 19.9101 43.504H28.0881C28.9747 43.5037 29.8362 43.209 30.537 42.6659C31.2379 42.1229 31.7385 41.3624 31.9601 40.504L33.4241 34.866" stroke="#ADADAD" stroke-width="1.5" stroke-linecap="round" stroke-linejoin="round"/>
<path d="M24 28V20" stroke="#2F8A33" stroke-width="1.5" stroke-linecap="round" stroke-linejoin="round"/>
<path d="M33.4222 13.1301L31.9622 7.49609C31.7405 6.63763 31.2399 5.87714 30.5391 5.33412C29.8382 4.79109 28.9768 4.49631 28.0902 4.49609H19.9122C19.0256 4.49631 18.1641 4.79109 17.4633 5.33412C16.7624 5.87714 16.2618 6.63763 16.0402 7.49609L14.5762 13.1321" stroke="#ADADAD" stroke-width="1.5" stroke-linecap="round" stroke-linejoin="round"/>
<path d="M15.668 34.9999H32.334C33.5275 35.0415 34.6888 34.6083 35.5635 33.7951C36.4381 32.982 36.9547 31.8553 37 30.6619V17.3379C36.9542 16.1443 36.4371 15.0176 35.5622 14.2045C34.6872 13.3914 33.5257 12.9583 32.332 12.9999H15.668C14.4742 12.9577 13.3123 13.3907 12.4373 14.2039C11.5622 15.0171 11.0453 16.1442 11 17.3379V30.6599C11.0214 31.2514 11.1591 31.8329 11.4053 32.3712C11.6515 32.9094 12.0014 33.3939 12.4349 33.797C12.8684 34.2 13.377 34.5137 13.9318 34.7201C14.4865 34.9265 15.0765 35.0216 15.668 34.9999V34.9999Z" stroke="#555555" stroke-width="1.5" stroke-linecap="round" stroke-linejoin="round"/>
<path d="M30 28V24" stroke="#2F8A33" stroke-width="1.5" stroke-linecap="round" stroke-linejoin="round"/>
<path d="M18 28V26" stroke="#2F8A33" stroke-width="1.5" stroke-linecap="round" stroke-linejoin="round"/>
</svg>
